<svg width="323" height="81" xmlns="http://www.w3.org/2000/svg"><g fill="#91D3B2" fill-rule="evenodd"><path d="M294.28 63c5.208 0 9.97 3.407 14.576 6.703 3.894 2.786 7.923 5.667 11.36 5.667 1.538 0 2.784 1.26 2.784 2.816 0 1.554-1.246 2.814-2.784 2.814-5.209 0-9.972-3.407-14.579-6.704-3.893-2.785-7.92-5.667-11.357-5.667-3.437 0-7.466 2.882-11.36 5.667-4.606 3.297-9.37 6.704-14.578 6.704-5.207 0-9.97-3.407-14.575-6.703-3.894-2.786-7.923-5.668-11.361-5.668-3.436 0-7.465 2.882-11.359 5.668C226.44 77.593 221.677 81 216.47 81c-5.208 0-9.97-3.407-14.578-6.704-3.894-2.785-7.921-5.667-11.36-5.667-3.434 0-7.463 2.882-11.357 5.667-4.15 2.97-8.427 6.03-13.041 6.607a2.79 2.79 0 01-.73.097l-.403-.007c-.134.005-.269.007-.403.007-.253 0-.498-.034-.731-.098-4.615-.577-8.892-3.636-13.042-6.606-3.894-2.785-7.921-5.667-11.357-5.667-3.438 0-7.466 2.882-11.36 5.667C123.5 77.593 118.738 81 113.529 81c-5.206 0-9.97-3.407-14.575-6.703-3.894-2.786-7.922-5.668-11.361-5.668-3.436 0-7.465 2.882-11.358 5.668C71.628 77.593 66.865 81 61.657 81s-9.97-3.407-14.577-6.704c-3.894-2.785-7.922-5.667-11.36-5.667-3.435 0-7.464 2.882-11.357 5.667C19.756 77.593 14.993 81 9.785 81 8.246 81 7 79.74 7 78.186c0-1.556 1.246-2.816 2.785-2.816 3.437 0 7.465-2.88 11.36-5.667C25.75 66.407 30.513 63 35.72 63c5.209 0 9.972 3.407 14.579 6.703 3.893 2.786 7.922 5.667 11.358 5.667 3.437 0 7.465-2.88 11.359-5.667C77.622 66.407 82.386 63 87.593 63c5.209 0 9.972 3.407 14.579 6.703 3.894 2.786 7.922 5.667 11.357 5.667 3.439 0 7.467-2.88 11.361-5.667C129.496 66.407 134.26 63 139.468 63c5.207 0 9.969 3.407 14.576 6.703 3.742 2.678 7.61 5.444 10.957 5.654 3.346-.21 7.213-2.976 10.957-5.654 4.605-3.296 9.368-6.703 14.574-6.703 5.21 0 9.972 3.407 14.58 6.703 3.893 2.786 7.922 5.667 11.358 5.667 3.437 0 7.464-2.88 11.358-5.667 4.607-3.296 9.37-6.703 14.578-6.703 5.209 0 9.972 3.407 14.578 6.703 3.894 2.786 7.923 5.667 11.358 5.667 3.438 0 7.467-2.88 11.36-5.667 4.606-3.296 9.37-6.703 14.578-6.703zM246.28 42c5.208 0 9.97 3.407 14.576 6.703 3.894 2.786 7.923 5.667 11.36 5.667 1.538 0 2.784 1.26 2.784 2.816 0 1.554-1.246 2.814-2.784 2.814-5.209 0-9.972-3.407-14.579-6.704-3.893-2.785-7.92-5.667-11.357-5.667-3.437 0-7.466 2.882-11.36 5.667-4.606 3.297-9.37 6.704-14.578 6.704-5.207 0-9.97-3.407-14.575-6.703-3.894-2.786-7.923-5.668-11.361-5.668-3.436 0-7.465 2.882-11.359 5.668C178.44 56.593 173.677 60 168.47 60c-5.208 0-9.97-3.407-14.578-6.704-3.894-2.785-7.921-5.667-11.36-5.667-3.434 0-7.463 2.882-11.357 5.667-4.15 2.97-8.427 6.03-13.041 6.607a2.79 2.79 0 01-.73.097l-.403-.007c-.134.005-.269.007-.403.007-.253 0-.498-.034-.731-.098-4.615-.577-8.892-3.636-13.042-6.606-3.894-2.785-7.921-5.667-11.357-5.667-3.438 0-7.466 2.882-11.36 5.667C75.5 56.593 70.738 60 65.529 60c-5.206 0-9.97-3.407-14.575-6.703-3.894-2.786-7.922-5.668-11.361-5.668-3.436 0-7.465 2.882-11.358 5.668C23.628 56.593 18.865 60 13.657 60S3.687 56.593-.92 53.296c-3.894-2.785-7.922-5.667-11.36-5.667-3.435 0-7.464 2.882-11.357 5.667C-28.244 56.593-33.007 60-38.215 60-39.754 60-41 58.74-41 57.186c0-1.556 1.246-2.816 2.785-2.816 3.437 0 7.465-2.88 11.36-5.667C-22.25 45.407-17.487 42-12.28 42c5.209 0 9.972 3.407 14.579 6.703 3.893 2.786 7.922 5.667 11.358 5.667 3.437 0 7.465-2.88 11.359-5.667C29.622 45.407 34.386 42 39.593 42c5.209 0 9.972 3.407 14.579 6.703 3.894 2.786 7.922 5.667 11.357 5.667 3.439 0 7.467-2.88 11.361-5.667C81.496 45.407 86.26 42 91.468 42c5.207 0 9.969 3.407 14.576 6.703 3.742 2.678 7.61 5.444 10.957 5.654 3.346-.21 7.213-2.976 10.957-5.654 4.605-3.296 9.368-6.703 14.574-6.703 5.21 0 9.972 3.407 14.58 6.703 3.893 2.786 7.922 5.667 11.358 5.667 3.437 0 7.464-2.88 11.358-5.667 4.607-3.296 9.37-6.703 14.578-6.703 5.209 0 9.972 3.407 14.578 6.703 3.894 2.786 7.923 5.667 11.358 5.667 3.438 0 7.467-2.88 11.36-5.667 4.606-3.296 9.37-6.703 14.578-6.703zM193.28 21c5.208 0 9.97 3.407 14.576 6.703 3.894 2.786 7.923 5.667 11.36 5.667 1.538 0 2.784 1.26 2.784 2.816 0 1.554-1.246 2.814-2.784 2.814-5.209 0-9.972-3.407-14.579-6.704-3.893-2.785-7.92-5.667-11.357-5.667-3.437 0-7.466 2.882-11.36 5.667-4.606 3.297-9.37 6.704-14.578 6.704-5.207 0-9.97-3.407-14.575-6.703-3.894-2.786-7.923-5.668-11.361-5.668-3.436 0-7.465 2.882-11.359 5.668C125.44 35.593 120.677 39 115.47 39c-5.208 0-9.97-3.407-14.578-6.704-3.894-2.785-7.921-5.667-11.36-5.667-3.434 0-7.463 2.882-11.357 5.667-4.15 2.97-8.427 6.03-13.041 6.607a2.79 2.79 0 01-.73.097L64 38.993c-.134.005-.269.007-.403.007-.253 0-.498-.034-.731-.098-4.615-.577-8.892-3.636-13.042-6.606-3.894-2.785-7.921-5.667-11.357-5.667-3.438 0-7.466 2.882-11.36 5.667C22.5 35.593 17.738 39 12.529 39c-5.206 0-9.97-3.407-14.575-6.703-3.894-2.786-7.922-5.668-11.361-5.668-3.436 0-7.465 2.882-11.358 5.668C-29.372 35.593-34.135 39-39.343 39s-9.97-3.407-14.577-6.704c-3.894-2.785-7.922-5.667-11.36-5.667-3.435 0-7.464 2.882-11.357 5.667C-81.244 35.593-86.007 39-91.215 39-92.754 39-94 37.74-94 36.186c0-1.556 1.246-2.816 2.785-2.816 3.437 0 7.465-2.88 11.36-5.667C-75.25 24.407-70.487 21-65.28 21c5.209 0 9.972 3.407 14.579 6.703 3.893 2.786 7.922 5.667 11.358 5.667 3.437 0 7.465-2.88 11.359-5.667C-23.378 24.407-18.614 21-13.407 21c5.209 0 9.972 3.407 14.579 6.703 3.894 2.786 7.922 5.667 11.357 5.667 3.439 0 7.467-2.88 11.361-5.667C28.496 24.407 33.26 21 38.468 21c5.207 0 9.969 3.407 14.576 6.703 3.742 2.678 7.61 5.444 10.957 5.654 3.346-.21 7.213-2.976 10.957-5.654C79.563 24.407 84.326 21 89.532 21c5.21 0 9.972 3.407 14.58 6.703 3.893 2.786 7.922 5.667 11.358 5.667 3.437 0 7.464-2.88 11.358-5.667 4.607-3.296 9.37-6.703 14.578-6.703 5.209 0 9.972 3.407 14.578 6.703 3.894 2.786 7.923 5.667 11.358 5.667 3.438 0 7.467-2.88 11.36-5.667 4.606-3.296 9.37-6.703 14.578-6.703zM146.28 0c5.208 0 9.97 3.407 14.576 6.703 3.894 2.786 7.923 5.667 11.36 5.667 1.538 0 2.784 1.26 2.784 2.816 0 1.554-1.246 2.814-2.784 2.814-5.209 0-9.972-3.407-14.579-6.704-3.893-2.785-7.92-5.667-11.357-5.667-3.437 0-7.466 2.882-11.36 5.667-4.606 3.297-9.37 6.704-14.578 6.704-5.207 0-9.97-3.407-14.575-6.703-3.894-2.786-7.923-5.668-11.361-5.668-3.436 0-7.465 2.882-11.359 5.668C78.44 14.593 73.677 18 68.47 18c-5.208 0-9.97-3.407-14.578-6.704-3.894-2.785-7.921-5.667-11.36-5.667-3.434 0-7.463 2.882-11.357 5.667-4.15 2.97-8.427 6.03-13.041 6.607a2.79 2.79 0 01-.73.097L17 17.993c-.134.005-.269.007-.403.007-.253 0-.498-.034-.731-.098-4.615-.577-8.892-3.636-13.042-6.606C-1.07 8.511-5.096 5.63-8.532 5.63c-3.438 0-7.466 2.882-11.36 5.667C-24.5 14.593-29.262 18-34.471 18c-5.206 0-9.97-3.407-14.575-6.703-3.894-2.786-7.922-5.668-11.361-5.668-3.436 0-7.465 2.882-11.358 5.668C-76.372 14.593-81.135 18-86.343 18s-9.97-3.407-14.577-6.704c-3.894-2.785-7.922-5.667-11.36-5.667-3.435 0-7.464 2.882-11.357 5.667-4.607 3.297-9.37 6.704-14.578 6.704-1.539 0-2.785-1.26-2.785-2.814 0-1.556 1.246-2.816 2.785-2.816 3.437 0 7.465-2.88 11.36-5.667C-122.25 3.407-117.487 0-112.28 0c5.209 0 9.972 3.407 14.579 6.703 3.893 2.786 7.922 5.667 11.358 5.667 3.437 0 7.465-2.88 11.359-5.667C-70.378 3.407-65.614 0-60.407 0c5.209 0 9.972 3.407 14.579 6.703 3.894 2.786 7.922 5.667 11.357 5.667 3.439 0 7.467-2.88 11.361-5.667C-18.504 3.407-13.74 0-8.532 0c5.207 0 9.969 3.407 14.576 6.703C9.786 9.38 13.654 12.147 17 12.357c3.346-.21 7.213-2.976 10.957-5.654C32.563 3.407 37.326 0 42.532 0c5.21 0 9.972 3.407 14.58 6.703 3.893 2.786 7.922 5.667 11.358 5.667 3.437 0 7.464-2.88 11.358-5.667C84.435 3.407 89.198 0 94.406 0c5.209 0 9.972 3.407 14.578 6.703 3.894 2.786 7.923 5.667 11.358 5.667 3.438 0 7.467-2.88 11.36-5.667C136.309 3.407 141.073 0 146.28 0z"/></g></svg>