<svg width="95" height="105" xmlns="http://www.w3.org/2000/svg"><g fill="none" fill-rule="evenodd"><path d="M41.459 40.227h-.164c-1.128-4.59-3.525-12.665-9.79-30.095H0c1.81 4.543 3.785 9.494 5.956 14.94L37.846 105h4.271l32.217-79.929 6.05-14.94H51.568c-6.426 17.431-8.98 25.505-10.108 30.096" fill="#EDE3CC"/><path d="M92.717 5.526c-1.262 0-2.284-1.237-2.284-2.763C90.433 1.237 91.455 0 92.717 0 93.978 0 95 1.237 95 2.763c0 1.526-1.022 2.763-2.283 2.763zm-11.876 0c-1.261 0-2.283-1.237-2.283-2.763C78.558 1.237 79.58 0 80.84 0s2.284 1.237 2.284 2.763c0 1.526-1.023 2.763-2.284 2.763zm-11.874 0c-1.262 0-2.284-1.237-2.284-2.763C66.683 1.237 67.705 0 68.967 0c1.261 0 2.283 1.237 2.283 2.763 0 1.526-1.022 2.763-2.283 2.763zm-47.5 0c-1.262 0-2.284-1.237-2.284-2.763C19.183 1.237 20.205 0 21.467 0c1.261 0 2.283 1.237 2.283 2.763 0 1.526-1.022 2.763-2.283 2.763zm11.874 0c-1.261 0-2.283-1.237-2.283-2.763C31.058 1.237 32.08 0 33.34 0s2.284 1.237 2.284 2.763c0 1.526-1.023 2.763-2.284 2.763zm11.875 0c-1.261 0-2.283-1.237-2.283-2.763C42.933 1.237 43.955 0 45.216 0S47.5 1.237 47.5 2.763c0 1.526-1.023 2.763-2.284 2.763zm43.847 9.21c-1.262 0-2.284-1.237-2.284-2.762 0-1.526 1.022-2.763 2.284-2.763 1.26 0 2.283 1.237 2.283 2.763 0 1.525-1.023 2.763-2.283 2.763zm-11.875 0c-1.261 0-2.284-1.237-2.284-2.762 0-1.526 1.023-2.763 2.284-2.763s2.283 1.237 2.283 2.763c0 1.525-1.022 2.763-2.283 2.763zm-10.962 0c-1.261 0-2.284-1.237-2.284-2.762 0-1.526 1.023-2.763 2.284-2.763 1.262 0 2.284 1.237 2.284 2.763 0 1.525-1.022 2.763-2.284 2.763zm-41.106 0c-1.261 0-2.283-1.237-2.283-2.762 0-1.526 1.022-2.763 2.283-2.763s2.284 1.237 2.284 2.763c0 1.525-1.023 2.763-2.284 2.763zm11.875 0c-1.261 0-2.283-1.237-2.283-2.762 0-1.526 1.022-2.763 2.283-2.763 1.262 0 2.284 1.237 2.284 2.763 0 1.525-1.022 2.763-2.284 2.763zm10.962 0c-1.261 0-2.284-1.237-2.284-2.762 0-1.526 1.023-2.763 2.284-2.763 1.26 0 2.283 1.237 2.283 2.763 0 1.525-1.022 2.763-2.283 2.763zm37.452 9.211c-1.262 0-2.284-1.237-2.284-2.762 0-1.527 1.022-2.764 2.284-2.764 1.261 0 2.283 1.237 2.283 2.764 0 1.525-1.022 2.762-2.283 2.762zm-11.875 0c-1.261 0-2.284-1.237-2.284-2.762 0-1.527 1.023-2.764 2.284-2.764s2.283 1.237 2.283 2.764c0 1.525-1.022 2.762-2.283 2.762zm-10.962 0c-1.26 0-2.284-1.237-2.284-2.762 0-1.527 1.023-2.764 2.284-2.764 1.262 0 2.284 1.237 2.284 2.764 0 1.525-1.022 2.762-2.284 2.762zm-33.798 0c-1.262 0-2.284-1.237-2.284-2.762 0-1.527 1.022-2.764 2.284-2.764 1.261 0 2.284 1.237 2.284 2.764 0 1.525-1.023 2.762-2.284 2.762zm10.961 0c-1.261 0-2.283-1.237-2.283-2.762 0-1.527 1.022-2.764 2.283-2.764 1.262 0 2.284 1.237 2.284 2.764 0 1.525-1.022 2.762-2.284 2.762zm11.875 0c-1.261 0-2.283-1.237-2.283-2.762 0-1.527 1.022-2.764 2.283-2.764 1.262 0 2.284 1.237 2.284 2.764 0 1.525-1.022 2.762-2.284 2.762zm30.145 9.21c-1.261 0-2.284-1.237-2.284-2.762 0-1.527 1.023-2.763 2.284-2.763s2.283 1.236 2.283 2.763c0 1.525-1.022 2.763-2.283 2.763zm-12.788 0c-1.262 0-2.284-1.237-2.284-2.762 0-1.527 1.022-2.763 2.284-2.763 1.261 0 2.283 1.236 2.283 2.763 0 1.525-1.022 2.763-2.283 2.763zm-11.875 0c-1.262 0-2.284-1.237-2.284-2.762 0-1.527 1.022-2.763 2.284-2.763 1.261 0 2.283 1.236 2.283 2.763 0 1.525-1.022 2.763-2.283 2.763zm-25.577 0c-1.262 0-2.284-1.237-2.284-2.762 0-1.527 1.022-2.763 2.284-2.763 1.261 0 2.283 1.236 2.283 2.763 0 1.525-1.022 2.763-2.283 2.763zm12.788 0c-1.262 0-2.284-1.237-2.284-2.762 0-1.527 1.022-2.763 2.284-2.763 1.26 0 2.284 1.236 2.284 2.763 0 1.525-1.023 2.763-2.284 2.763zm21.01 11.054c-1.261 0-2.284-1.237-2.284-2.764 0-1.525 1.023-2.763 2.284-2.763s2.283 1.238 2.283 2.763c0 1.527-1.022 2.764-2.283 2.764zm-29.232 0c-1.26 0-2.283-1.237-2.283-2.764 0-1.525 1.022-2.763 2.283-2.763 1.262 0 2.284 1.238 2.284 2.763 0 1.527-1.022 2.764-2.284 2.764zm11.875 0c-1.26 0-2.283-1.237-2.283-2.764 0-1.525 1.023-2.763 2.283-2.763 1.262 0 2.284 1.238 2.284 2.763 0 1.527-1.022 2.764-2.284 2.764zm29.232 0c-1.261 0-2.284-1.237-2.284-2.764 0-1.525 1.023-2.763 2.284-2.763s2.283 1.238 2.283 2.763c0 1.527-1.022 2.764-2.283 2.764zm-20.096 1.842c-1.262 0-2.284-1.238-2.284-2.763 0-1.526 1.022-2.764 2.284-2.764 1.261 0 2.283 1.238 2.283 2.764 0 1.525-1.022 2.763-2.283 2.763zm4.567 8.29c-1.261 0-2.284-1.238-2.284-2.764 0-1.526 1.023-2.763 2.284-2.763s2.283 1.237 2.283 2.763c0 1.526-1.022 2.763-2.283 2.763zm-20.097 0c-1.26 0-2.283-1.238-2.283-2.764 0-1.526 1.023-2.763 2.283-2.763 1.262 0 2.284 1.237 2.284 2.763 0 1.526-1.022 2.763-2.284 2.763zm10.049 0c-1.261 0-2.284-1.238-2.284-2.764 0-1.526 1.023-2.763 2.284-2.763s2.283 1.237 2.283 2.763c0 1.526-1.022 2.763-2.283 2.763zm21.01 0c-1.262 0-2.284-1.238-2.284-2.764 0-1.526 1.022-2.763 2.284-2.763 1.26 0 2.283 1.237 2.283 2.763 0 1.526-1.022 2.763-2.283 2.763zm-15.53 10.13c-1.26 0-2.283-1.237-2.283-2.762 0-1.526 1.022-2.764 2.284-2.764 1.261 0 2.283 1.238 2.283 2.764 0 1.525-1.022 2.763-2.283 2.763zm-11.875 0c-1.261 0-2.283-1.237-2.283-2.762 0-1.526 1.022-2.764 2.283-2.764 1.262 0 2.284 1.238 2.284 2.764 0 1.525-1.022 2.763-2.284 2.763zm22.837 0c-1.262 0-2.284-1.237-2.284-2.762 0-1.526 1.022-2.764 2.284-2.764 1.262 0 2.284 1.238 2.284 2.764 0 1.525-1.022 2.763-2.284 2.763zm-19.182 9.211c-1.262 0-2.284-1.237-2.284-2.763 0-1.526 1.022-2.763 2.284-2.763 1.26 0 2.283 1.237 2.283 2.763 0 1.526-1.022 2.763-2.283 2.763zm15.528 0c-1.262 0-2.284-1.237-2.284-2.763 0-1.526 1.022-2.763 2.284-2.763 1.262 0 2.284 1.237 2.284 2.763 0 1.526-1.022 2.763-2.284 2.763zm-8.22 2.763c-1.263 0-2.285-1.236-2.285-2.763 0-1.526 1.022-2.763 2.284-2.763 1.262 0 2.284 1.237 2.284 2.763 0 1.527-1.022 2.763-2.284 2.763zm5.48 6.448c-1.261 0-2.284-1.238-2.284-2.763 0-1.527 1.023-2.764 2.283-2.764 1.262 0 2.284 1.237 2.284 2.764 0 1.525-1.022 2.763-2.284 2.763zm-10.048 0c-1.262 0-2.284-1.238-2.284-2.763 0-1.527 1.022-2.764 2.284-2.764 1.261 0 2.283 1.237 2.283 2.764 0 1.525-1.022 2.763-2.283 2.763zm4.567 9.21c-1.262 0-2.284-1.237-2.284-2.763 0-1.526 1.022-2.763 2.284-2.763 1.26 0 2.284 1.237 2.284 2.763 0 1.526-1.023 2.763-2.284 2.763z" fill="#FF8F0D"/></g></svg>